<svg xmlns="http://www.w3.org/2000/svg" version="1.1" xmlns:xlink="http://www.w3.org/1999/xlink" width="2000" height="417" viewBox="0 0 2000 417"><svg xml:space="preserve" width="2000" height="417" data-version="2" data-id="lg_t1jTNtckCCICUeraZK" viewBox="0 0 564 417" x="0" y="0"><rect width="100%" height="100%" fill="transparent"></rect><circle r="137.21" fill="none" stroke="#00df72" stroke-width="4" paint-order="stroke" transform="translate(280.35 234.27)scale(1.2844)"></circle><path fill="#008253" d="M14.43 235.893v-8.19h8.64q2.82 0 4.32-1.38 1.5-1.37 1.5-3.74 0-2.31-1.5-3.75t-4.32-1.44h-8.64v-8.51h10.24q4.61 0 8.1 1.73 3.48 1.73 5.47 4.74 1.98 3 1.98 7.04 0 4.03-2.01 7.07-2.02 3.04-5.6 4.73-3.59 1.7-8.39 1.7Zm-9.09 18.37v-45.38H16.8v45.38Zm24.58 0-13.19-19.46 10.31-2.49 16.13 21.95Z" paint-order="stroke"></path><rect width="37.83" height="45.38" x="-18.91" y="-22.69" fill="none" rx="0" ry="0" transform="translate(24.75 232.07)"></rect><path fill="#008253" d="M68.96 255.093q-5.25 0-9.67-1.79-4.41-1.79-7.71-4.99-3.29-3.2-5.15-7.52-1.86-4.32-1.86-9.32 0-4.99 1.83-9.24 1.82-4.26 5.09-7.46 3.26-3.2 7.68-4.96 4.41-1.76 9.66-1.76t9.66 1.76q4.42 1.76 7.68 4.96 3.27 3.2 5.09 7.49 1.83 4.29 1.83 9.28 0 4.99-1.83 9.28-1.82 4.29-5.09 7.52-3.26 3.23-7.64 4.99-4.39 1.76-9.57 1.76m-.13-10.24q3.84 0 6.66-1.66 2.81-1.67 4.35-4.68 1.53-3 1.53-7.04 0-2.94-.86-5.37t-2.53-4.19q-1.66-1.76-3.97-2.72-2.3-.96-5.18-.96-3.84 0-6.66 1.63-2.81 1.63-4.35 4.64-1.53 3.01-1.53 6.97 0 3.08.86 5.54t2.53 4.22q1.66 1.76 3.97 2.69 2.3.93 5.18.93" paint-order="stroke"></path><rect width="48.52" height="47.04" x="-24.26" y="-23.52" fill="none" rx="0" ry="0" transform="translate(69.33 232.07)"></rect><path fill="#008253" d="M107.93 254.263v-8.51h9.48q2.68 0 4.25-1.51 1.57-1.5 1.57-3.93 0-1.6-.7-2.85-.71-1.25-2.02-1.92-1.31-.67-3.1-.67h-9.48v-8.26h8.77q2.24 0 3.68-1.12t1.44-3.49q0-2.37-1.44-3.49t-3.68-1.12h-8.77v-8.51h11.52q4.23 0 7.33 1.6 3.11 1.6 4.77 4.29 1.66 2.69 1.66 6.08 0 4.54-3.1 7.52-3.1 2.98-8.99 3.68v-3.84q6.53.77 9.98 4.19 3.46 3.43 3.46 8.61 0 3.84-1.92 6.82-1.92 2.97-5.41 4.7t-8.22 1.73Zm-9.08 0v-45.38h11.26v45.38Z" paint-order="stroke"></path><rect width="35.71" height="45.38" x="-17.86" y="-22.69" fill="none" rx="0" ry="0" transform="translate(117.2 232.07)"></rect><path fill="#008253" d="M140.45 254.263v-45.38h11.45v45.38Zm9.08 0v-9.86h21.89v9.86Z" paint-order="stroke"></path><rect width="30.97" height="45.38" x="-15.48" y="-22.69" fill="none" rx="0" ry="0" transform="translate(156.44 232.07)"></rect><path fill="#008253" d="M176.73 254.263v-45.38h11.46v45.38Zm9.09 0v-9.67h24.58v9.67Zm0-18.43v-9.41h22.27v9.41Zm0-17.28v-9.67h24.19v9.67Z" paint-order="stroke"></path><rect width="33.67" height="45.38" x="-16.84" y="-22.69" fill="none" rx="0" ry="0" transform="translate(194.06 232.07)"></rect><path fill="#008253" d="M238.11 254.963q-5.18 0-9.6-1.76t-7.71-4.93q-3.3-3.16-5.12-7.45-1.83-4.29-1.83-9.28 0-5.06 1.83-9.31 1.82-4.26 5.12-7.4 3.29-3.13 7.68-4.92 4.38-1.8 9.5-1.8 5.38 0 9.67 1.7 4.28 1.7 7.55 4.7l-7.68 7.68q-1.6-1.79-3.97-2.81-2.37-1.03-5.57-1.03-2.75 0-5.02.9-2.27.9-3.94 2.66-1.66 1.76-2.59 4.19-.93 2.43-.93 5.44 0 3.01.93 5.44.93 2.43 2.59 4.19 1.67 1.76 3.94 2.69 2.27.93 5.02.93 3.2 0 5.63-1 2.44-.99 4.16-2.84l7.68 7.68q-3.32 3-7.52 4.67-4.19 1.66-9.82 1.66" paint-order="stroke"></path><rect width="41.6" height="46.85" x="-20.8" y="-23.43" fill="none" rx="0" ry="0" transform="translate(235.15 232.04)"></rect><path fill="#008253" d="M280.67 255.093q-5.25 0-9.66-1.79-4.42-1.79-7.72-4.99-3.29-3.2-5.15-7.52-1.85-4.32-1.85-9.32 0-4.99 1.82-9.24 1.82-4.26 5.09-7.46 3.26-3.2 7.68-4.96 4.41-1.76 9.66-1.76t9.67 1.76q4.41 1.76 7.68 4.96 3.26 3.2 5.08 7.49 1.83 4.29 1.83 9.28 0 4.99-1.83 9.28-1.82 4.29-5.08 7.52-3.27 3.23-7.65 4.99-4.39 1.76-9.57 1.76m-.13-10.24q3.84 0 6.66-1.66 2.81-1.67 4.35-4.68 1.54-3 1.54-7.04 0-2.94-.87-5.37-.86-2.43-2.53-4.19-1.66-1.76-3.96-2.72-2.31-.96-5.19-.96-3.84 0-6.65 1.63-2.82 1.63-4.36 4.64-1.53 3.01-1.53 6.97 0 3.08.86 5.54.87 2.46 2.53 4.22 1.66 1.76 3.97 2.69 2.3.93 5.18.93" paint-order="stroke"></path><rect width="48.51" height="47.04" x="-24.25" y="-23.52" fill="none" rx="0" ry="0" transform="translate(281.05 232.07)"></rect><path fill="#008253" d="M310.56 254.263v-45.38h8.25l17.41 26.31h-3.9l17.34-26.31h8.26v45.38h-11.33v-26.43l1.79.51-10.43 15.68h-7.42l-10.37-15.68 1.79-.51v26.43Z" paint-order="stroke"></path><rect width="47.36" height="45.38" x="-23.68" y="-22.69" fill="none" rx="0" ry="0" transform="translate(334.74 232.07)"></rect><path fill="#008253" d="M365.98 254.263v-45.38h11.46v45.38Zm9.09 0v-9.67h24.58v9.67Zm0-18.43v-9.41h22.27v9.41Zm0-17.28v-9.67h24.19v9.67Z" paint-order="stroke"></path><rect width="33.67" height="45.38" x="-16.84" y="-22.69" fill="none" rx="0" ry="0" transform="translate(383.31 232.07)"></rect><path fill="#008253" d="M415.2 235.893v-8.19h8.64q2.81 0 4.32-1.38 1.5-1.37 1.5-3.74 0-2.31-1.5-3.75-1.51-1.44-4.32-1.44h-8.64v-8.51h10.24q4.61 0 8.09 1.73 3.49 1.73 5.48 4.74 1.98 3 1.98 7.04 0 4.03-2.02 7.07-2.01 3.04-5.6 4.73-3.58 1.7-8.38 1.7Zm-9.09 18.37v-45.38h11.46v45.38Zm24.58 0-13.19-19.46 10.31-2.49 16.12 21.95Z" paint-order="stroke"></path><rect width="37.82" height="45.38" x="-18.91" y="-22.69" fill="none" rx="0" ry="0" transform="translate(425.52 232.07)"></rect><path fill="#008253" d="M469.66 254.963q-5.18 0-9.6-1.76-4.41-1.76-7.71-4.93-3.3-3.16-5.12-7.45-1.82-4.29-1.82-9.28 0-5.06 1.82-9.31 1.82-4.26 5.12-7.4 3.3-3.13 7.68-4.92 4.38-1.8 9.5-1.8 5.38 0 9.67 1.7t7.55 4.7l-7.68 7.68q-1.6-1.79-3.97-2.81-2.37-1.03-5.57-1.03-2.75 0-5.02.9-2.27.9-3.94 2.66-1.66 1.76-2.59 4.19-.93 2.43-.93 5.44 0 3.01.93 5.44.93 2.43 2.59 4.19 1.67 1.76 3.94 2.69 2.27.93 5.02.93 3.2 0 5.64-1 2.43-.99 4.16-2.84l7.68 7.68q-3.33 3-7.52 4.67-4.2 1.66-9.83 1.66" paint-order="stroke"></path><rect width="41.6" height="46.85" x="-20.8" y="-23.43" fill="none" rx="0" ry="0" transform="translate(466.71 232.04)"></rect><path fill="#008253" d="M491.93 254.263v-45.38h11.46v45.38Z" paint-order="stroke"></path><rect width="11.46" height="45.38" x="-5.73" y="-22.69" fill="none" rx="0" ry="0" transform="translate(498.16 232.07)"></rect><path fill="#008253" d="M533.53 255.093q-5.24 0-9.66-1.79t-7.71-4.99q-3.3-3.2-5.15-7.52-1.86-4.32-1.86-9.32 0-4.99 1.82-9.24 1.83-4.26 5.09-7.46 3.27-3.2 7.68-4.96 4.42-1.76 9.67-1.76 5.24 0 9.66 1.76t7.68 4.96q3.26 3.2 5.09 7.49 1.82 4.29 1.82 9.28 0 4.99-1.82 9.28-1.83 4.29-5.09 7.52-3.26 3.23-7.65 4.99-4.38 1.76-9.57 1.76m-.12-10.24q3.84 0 6.65-1.66 2.82-1.67 4.35-4.68 1.54-3 1.54-7.04 0-2.94-.86-5.37-.87-2.43-2.53-4.19-1.67-1.76-3.97-2.72-2.3-.96-5.18-.96-3.84 0-6.66 1.63-2.82 1.63-4.35 4.64-1.54 3.01-1.54 6.97 0 3.08.87 5.54.86 2.46 2.52 4.22 1.67 1.76 3.97 2.69 2.31.93 5.19.93" paint-order="stroke"></path><rect width="48.51" height="47.04" x="-24.25" y="-23.52" fill="none" rx="0" ry="0" transform="translate(533.9 232.07)"></rect><path fill="#00df72" d="M225.389 118.636c-8.926 0-16.19 7.372-16.19 16.439 0 8.924 7.264 16.193 16.19 16.193 9.216 0 16.437-7.12 16.437-16.193.002-9.222-7.22-16.44-16.437-16.44m86.635 0c-9.064 0-16.421 7.372-16.421 16.439 0 8.924 7.357 16.193 16.42 16.193 8.943 0 16.212-7.27 16.212-16.193 0-9.222-7.12-16.44-16.211-16.44m25.64-90.548a6.678 6.678 0 0 0-5.228-2.51H209.501l-6.397-17.28a6.695 6.695 0 0 0-6.275-4.37h-17.11a6.695 6.695 0 0 0 0 13.388h12.45l31.844 85.997a6.7 6.7 0 0 0 6.275 4.367c.265 0 .536-.018.802-.043l89.265-10.712a6.711 6.711 0 0 0 5.752-5.203l12.883-58.004a6.683 6.683 0 0 0-1.326-5.63m-18.022 30.959h-26.74V38.966h31.2zm-60.212 0V38.966h26.779v20.08zm26.779 6.693v21.798l-26.779 3.208V65.73h26.779zm-33.474-26.774v20.08H221.89l-7.434-20.08zM224.37 65.74h28.365v25.825l-18.002 2.153zm68.532 20.997V65.74h25.256l-4.104 18.45z"></path></svg></svg>